<?xml version="1.0" standalone="no"?>
<!DOCTYPE svg PUBLIC "-//W3C//DTD SVG 20010904//EN"
 "http://www.w3.org/TR/2001/REC-SVG-20010904/DTD/svg10.dtd">
<svg version="1.0" xmlns="http://www.w3.org/2000/svg"
 width="260.000000pt" height="260.000000pt" viewBox="0 0 260.000000 260.000000"
 preserveAspectRatio="xMidYMid meet">
<metadata>
Created by potrace 1.14, written by Peter Selinger 2001-2017
</metadata>
<g transform="translate(0.000000,260.000000) scale(0.100000,-0.100000)"
fill="#000000" stroke="none">
<path d="M1299 2026 l-126 -128 -142 1 -143 2 -41 -48 c-23 -26 -88 -97 -144
-157 l-103 -108 0 -387 0 -387 156 -164 c85 -91 257 -274 382 -407 l227 -243
618 0 617 0 0 643 0 642 -440 440 -440 440 0 -678 0 -677 -420 0 -420 0 0 540
0 540 140 0 140 0 0 -390 0 -390 141 0 141 0 -7 523 c-4 287 -8 522 -9 522 0
0 -58 -58 -127 -129z"/>
</g>
</svg>
